<svg xmlns="http://www.w3.org/2000/svg">
  <symbol id="avatar" viewBox="0 0 17 21">
    <path fill-rule="evenodd" clip-rule="evenodd" d="M3.79193 16.4101C3.47269 16.4958 3.1566 16.5913 2.84241 16.6905C1.96544 16.9684 1.09919 17.2788 0.239258 17.6045C2.47206 19.5465 5.41275 20.7373 8.64745 20.7373C11.7389 20.7373 14.5673 19.6549 16.761 17.8641C15.6216 17.3499 14.0134 16.8307 14.0134 16.8307C12.1011 16.4738 11.5225 16.0476 11.5225 16.0476C10.9086 15.7758 11.014 13.2057 11.014 13.2057C11.961 13.0863 11.9086 10.2609 11.9086 10.2609C12.5749 10.6692 12.6279 9.81823 12.6279 9.81823C12.6626 9.49498 12.838 8.89928 12.838 8.89928C13.4872 6.9077 12.5396 7.38402 12.5396 7.38402C13.0657 5.44387 12.838 3.77616 12.838 3.77616C12.7244 2.94598 12.3288 2.25539 11.6153 1.77295C11.3736 1.60949 11.1112 1.47541 10.8367 1.37195C10.4632 1.23113 10.0765 1.04073 9.6935 0.938488C9.3812 0.854613 9.06006 0.805635 8.73767 0.775024C8.38246 0.741963 8.02032 0.726045 7.66385 0.746249C7.3301 0.746249 7.17237 0.950733 7.17237 0.950733C7.1219 1.01502 6.69098 1.09338 6.59193 1.13869C6.41527 1.21889 6.24303 1.30889 6.07458 1.40439C5.64682 1.64867 5.26638 1.96397 4.86827 2.24927C4.55723 2.47212 4.16228 2.6215 3.9402 2.94231C3.74651 3.22271 3.63988 3.55331 3.57932 3.88269C3.51055 4.25982 3.46638 4.70552 3.54209 5.08633C3.62916 5.52897 3.75219 7.5034 3.75219 7.5034C3.05061 7.36749 3.43673 8.37154 3.43673 8.37154C3.57679 8.55888 3.76985 9.58008 3.76985 9.58008C3.94525 11.0611 4.68215 10.4654 4.68215 10.4654C4.55912 13.0863 5.47143 13.2222 5.47143 13.2222C5.59382 14.754 5.29603 15.6393 5.29603 15.6393C5.07332 16.2062 4.31054 16.2711 3.79193 16.4101Z"/>
  </symbol>

  <symbol id="heart" viewBox="0 0 21 19">
    <path fill-rule="evenodd" clip-rule="evenodd" d="M10.7607 18.7376C29.7677 6.21408 16.9587 -4.28954 10.7607 2.57821C4.56283 -4.28954 -8.24619 6.21408 10.7607 18.7376Z"/>
  </symbol>

  <symbol id="basket" viewBox="0 0 26 22">
    <path fill-rule="evenodd" clip-rule="evenodd" d="M17.4759 17.3674L18.3369 11.6185C18.3908 11.265 18.7249 11.0279 19.0718 11.0754C19.4253 11.1271 19.6688 11.4568 19.616 11.8103L18.755 17.5592C18.7065 17.8803 18.4307 18.1088 18.116 18.1088C18.0837 18.1088 18.0525 18.1077 18.019 18.1034C17.6667 18.0495 17.4231 17.7208 17.4759 17.3674ZM14.376 17.4256V11.7521C14.376 11.3944 14.6658 11.1045 15.0225 11.1045C15.3803 11.1045 15.6691 11.3944 15.6691 11.7521V17.4256C15.6691 17.7823 15.3803 18.0711 15.0225 18.0711C14.6658 18.0711 14.376 17.7823 14.376 17.4256ZM10.8525 17.4256V11.7521C10.8525 11.3944 11.1413 11.1045 11.4991 11.1045C11.8558 11.1045 12.1456 11.3944 12.1456 11.7521V17.4256C12.1456 17.7823 11.8558 18.0711 11.4991 18.0711C11.1413 18.0711 10.8525 17.7823 10.8525 17.4256ZM6.90563 11.8105C6.85283 11.4571 7.09637 11.1273 7.44874 11.0756C7.80111 11.0228 8.13193 11.2642 8.18365 11.6187L9.04572 17.3676C9.09852 17.7211 8.85499 18.0497 8.50154 18.1036C8.46921 18.1079 8.43688 18.109 8.40563 18.109C8.09098 18.109 7.81512 17.8806 7.76662 17.5594L6.90563 11.8105ZM25.1142 7.44059H23.7877H23.7726H21.0528L18.7435 0.510636C18.6293 0.172274 18.2629 -0.0119931 17.9256 0.102231C17.5873 0.215378 17.4041 0.580679 17.5161 0.920119L19.6896 7.44059H6.84156L9.01505 0.920119C9.1282 0.580679 8.94501 0.215378 8.60665 0.102231C8.26829 -0.00983789 7.90191 0.172274 7.78876 0.510636L5.47842 7.44059H2.75104H2.72518H1.40729C1.04954 7.44059 0.760742 7.72939 0.760742 8.08714C0.760742 8.44383 1.04954 8.7337 1.40729 8.7337H2.19932L4.22195 19.1734C4.50967 20.6593 5.81678 21.7369 7.33079 21.7369H19.1885C20.7026 21.7369 22.0097 20.6593 22.2974 19.1734L24.32 8.7337H25.1142C25.4709 8.7337 25.7607 8.44383 25.7607 8.08714C25.7607 7.72939 25.4709 7.44059 25.1142 7.44059Z"/>
  </symbol>

  <symbol id="search" viewBox="0 0 20 20">
    <path fill-rule="evenodd" clip-rule="evenodd" d="M15.8291 8.05174C15.8291 12.3541 12.3392 15.8418 8.03415 15.8418C3.72915 15.8418 0.239258 12.3541 0.239258 8.05174C0.239258 3.74943 3.72915 0.261719 8.03415 0.261719C12.3392 0.261719 15.8291 3.74943 15.8291 8.05174ZM2.1875 8.0515C2.1875 11.2782 4.80492 13.894 8.03367 13.894C11.2624 13.894 13.8798 11.2782 13.8798 8.0515C13.8798 4.82477 11.2624 2.20898 8.03367 2.20898C4.80492 2.20898 2.1875 4.82477 2.1875 8.0515Z"/>
    <path fill-rule="evenodd" clip-rule="evenodd" d="M17.5586 19.4338C17.9292 19.8237 18.5459 19.8396 18.9361 19.4692C19.3262 19.0988 19.3421 18.4825 18.9714 18.0926L13.6124 12.4545C13.2418 12.0646 12.6251 12.0487 12.2349 12.4191C11.8448 12.7895 11.8289 13.4058 12.1996 13.7958L17.5586 19.4338Z"/>
  </symbol>

  <symbol id="close" width="26" height="26" viewBox="0 0 26 26">
    <path fill-rule="evenodd" clip-rule="evenodd" d="M18.1647 16.2277C18.7033 16.7663 18.707 17.6299 18.1684 18.1703C17.6354 18.7033 16.7681 18.707 16.2277 18.1666L12.9981 14.9389L9.77043 18.1666C9.23 18.7033 8.36829 18.707 7.82971 18.1703C7.29486 17.6336 7.293 16.77 7.83343 16.2277L11.0611 13L7.83343 9.77229C7.29857 9.23557 7.293 8.372 7.82971 7.83157C8.36457 7.29486 9.22814 7.293 9.77043 7.83157L12.9981 11.0593L16.2277 7.83157C16.7644 7.29671 17.6317 7.293 18.1684 7.83157C18.7033 8.36643 18.707 9.22814 18.1647 9.77229L14.9389 13L18.1647 16.2277ZM13 0C5.82214 0 0 5.82214 0 13C0 20.1779 5.82214 26 13 26C20.1797 26 26 20.1779 26 13C26 5.82214 20.1797 0 13 0Z"/>
  </symbol>

  <symbol id="favorites" viewBox="0 0 30 28">
    <path fill-rule="evenodd" clip-rule="evenodd" d="M13.2967 1.89188C3.81432 -5.4353 -11.8683 9.66713 14.7557 27.5C41.3796 9.66713 25.697 -5.4353 16.2146 1.89188C15.7081 2.28322 15.2194 2.73855 14.7557 3.26087C14.292 2.73855 13.8032 2.28322 13.2967 1.89188ZM14.7557 25.0769C20.8981 20.7835 24.3724 16.7842 26.0939 13.4265C27.9032 9.89748 27.7559 7.1507 26.8942 5.32736C25.1856 1.7119 19.9364 0.437731 16.2513 4.58866L14.7557 6.2734L13.26 4.58866C9.57496 0.437731 4.32572 1.7119 2.61713 5.32736C1.75547 7.1507 1.60813 9.89748 3.41741 13.4265C5.13893 16.7842 8.61324 20.7835 14.7557 25.0769Z"/>
  </symbol>

  <symbol id="arrowDown" width="16" height="9" viewBox="0 0 16 9">
    <path fill-rule="evenodd" clip-rule="evenodd" d="M15.0709 1.84309L8.70692 8.20705C8.31639 8.59758 7.68323 8.59758 7.2927 8.20705L0.928741 1.84309C0.538216 1.45257 0.538216 0.819404 0.928741 0.42888C1.31926 0.0383552 1.95243 0.0383552 2.34295 0.42888L7.99981 6.08573L13.6567 0.42888C14.0472 0.0383552 14.6804 0.0383552 15.0709 0.42888C15.4614 0.819404 15.4614 1.45257 15.0709 1.84309Z"/>
  </symbol>

  <symbol id="arrowLeft" viewBox="0 0 12 20">
    <path d="M4.02031 10L11.5816 17.5613C12.1395 18.1192 12.1395 19.0237 11.5816 19.5816C11.0237 20.1395 10.1192 20.1395 9.56128 19.5816L0.989847 11.0102C0.431955 10.4523 0.431955 9.54774 0.989847 8.98985L9.56128 0.418419C10.1192 -0.139473 11.0237 -0.139473 11.5816 0.418419C12.1395 0.976311 12.1395 1.88083 11.5816 2.43872L4.02031 10Z"/>
  </symbol>

  <symbol id="arrowRight" viewBox="0 0 12 20">
    <path d="M7.97969 10L0.418419 17.5613C-0.139473 18.1192 -0.139473 19.0237 0.418419 19.5816C0.976311 20.1395 1.88083 20.1395 2.43872 19.5816L11.0102 11.0102C11.568 10.4523 11.568 9.54774 11.0102 8.98985L2.43872 0.418419C1.88083 -0.139473 0.976311 -0.139473 0.418419 0.418419C-0.139473 0.976311 -0.139473 1.88083 0.418419 2.43872L7.97969 10Z"/>
  </symbol>

  <symbol id="arrowRightLong" viewBox="0 0 24 16">
    <path fill-rule="evenodd" clip-rule="evenodd" d="M16.8431 0.92888L23.2071 7.29284C23.5976 7.68336 23.5976 8.31653 23.2071 8.70705L16.8431 15.071C16.4526 15.4615 15.8195 15.4615 15.4289 15.071C15.0384 14.6805 15.0384 14.0473 15.4289 13.6568L20.0858 8.99995H0L0 6.99995H20.0858L15.4289 2.34309C15.0384 1.95257 15.0384 1.3194 15.4289 0.92888C15.8195 0.538355 16.4526 0.538355 16.8431 0.92888Z"/>
  </symbol>

  <symbol id="views" width="24" height="18" viewBox="0 0 24 18">
    <path fill-rule="evenodd" clip-rule="evenodd" d="M0.894336 7.20747C0.509967 7.80263 0.246141 8.27165 0.105573 8.55279C-0.0351909 8.83431 -0.0351909 9.16569 0.105573 9.44721C0.246141 9.72835 0.509967 10.1974 0.894336 10.7925C1.5305 11.7776 2.28113 12.762 3.14546 13.6839C5.66131 16.3675 8.6202 18 12 18C15.3798 18 18.3387 16.3675 20.8545 13.6839C21.7189 12.762 22.4695 11.7776 23.1057 10.7925C23.49 10.1974 23.7539 9.72835 23.8944 9.44721C24.0352 9.16569 24.0352 8.83431 23.8944 8.55279C23.7539 8.27165 23.49 7.80263 23.1057 7.20747C22.4695 6.22245 21.7189 5.23802 20.8545 4.31606C18.3387 1.63249 15.3798 0 12 0C8.6202 0 5.66131 1.63249 3.14546 4.31606C2.28113 5.23802 1.5305 6.22245 0.894336 7.20747ZM4.60445 12.3161C3.82816 11.488 3.1491 10.5974 2.57433 9.70747C2.41119 9.45487 2.2665 9.21763 2.14063 9C2.2665 8.78237 2.41119 8.54513 2.57433 8.29253C3.1491 7.40255 3.82816 6.51198 4.60445 5.68394C6.7761 3.36751 9.25472 2 11.9999 2C14.7451 2 17.2237 3.36751 19.3954 5.68394C20.1717 6.51198 20.8507 7.40255 21.4255 8.29253C21.5886 8.54513 21.7333 8.78237 21.8592 9C21.7333 9.21763 21.5886 9.45487 21.4255 9.70747C20.8507 10.5974 20.1717 11.488 19.3954 12.3161C17.2237 14.6325 14.7451 16 11.9999 16C9.25472 16 6.7761 14.6325 4.60445 12.3161ZM12 13C9.79086 13 8 11.2091 8 9C8 6.79086 9.79086 5 12 5C14.2091 5 16 6.79086 16 9C16 11.2091 14.2091 13 12 13ZM14 9C14 10.1046 13.1046 11 12 11C10.8954 11 10 10.1046 10 9C10 7.89543 10.8954 7 12 7C13.1046 7 14 7.89543 14 9Z"/>
  </symbol>

  <symbol id="comments" width="21" height="21" viewBox="0 0 21 21">
    <path fill-rule="evenodd" clip-rule="evenodd" d="M18.9962 13.7471C19.6602 12.4326 20.0054 10.9757 20.0017 9.49876V9.00003C19.734 4.1202 15.8816 0.267728 11.0568 0.00155019L10.5017 3.18317e-05C9.02697 -0.00381667 7.56958 0.341354 6.25088 1.00743C3.0366 2.61387 1.00312 5.90204 1.00173 9.49965C0.998251 10.8327 1.2798 12.1513 1.82562 13.3661L0.0530458 18.6838C-0.20754 19.4656 0.536199 20.2093 1.31796 19.9487L6.63568 18.1761C7.85051 18.722 9.16926 19.0035 10.5043 19C14.0997 18.9986 17.3879 16.9652 18.9962 13.7471ZM6.38564 16.1513L2.58301 17.4189L3.85055 13.6163C3.93487 13.3633 3.91468 13.0872 3.79447 12.8492C3.27041 11.8116 2.99884 10.665 3.00187 9.50264C3.00297 6.6602 4.60834 4.06427 7.14893 2.79453C8.19025 2.26857 9.3369 1.99699 10.4993 2.00003L11.0019 2.00003C14.7537 2.20853 17.7934 5.24824 18.0034 9.05511L18.0019 9.50264C18.0049 10.665 17.7333 11.8116 17.2093 12.8492C15.9376 15.3936 13.3417 16.9989 10.5015 17C9.3369 17.0031 8.19025 16.7315 7.15272 16.2074C6.91473 16.0872 6.63859 16.067 6.38564 16.1513Z"/>
  </symbol>

  <symbol id="facebook" width="20" height="20" viewBox="0 0 20 20">
    <path fill-rule="evenodd" clip-rule="evenodd" d="M9.505 0.791016C4.256 0.791016 0 5.04602 0 10.296C0 15.546 4.256 19.801 9.505 19.801C14.754 19.801 19.01 15.546 19.01 10.296C19.01 5.04602 14.754 0.791016 9.505 0.791016ZM11.755 7.35902H10.326C10.157 7.35902 9.969 7.58102 9.969 7.87902V8.91002H11.755V10.382H9.969V14.798H8.282V10.382H6.753V8.91002H8.282V8.04502C8.282 6.80402 9.143 5.79402 10.326 5.79402H11.755V7.35902Z"/>
  </symbol>

  <symbol id="vkontakte" width="20" height="20" viewBox="0 0 20 20">
    <path fill-rule="evenodd" clip-rule="evenodd" d="M10.5495 10.477C10.2445 10.299 9.82053 10.299 9.47653 10.299H8.34653V12.628H9.38453C9.76853 12.628 10.2575 12.655 10.5885 12.423C10.8925 12.219 11.0655 11.817 11.0655 11.435C11.0655 11.079 10.8535 10.654 10.5495 10.477ZM10.1237 8.48842C10.3757 8.29742 10.5077 7.95542 10.5077 7.64042C10.5077 7.29842 10.3487 6.97042 10.0577 6.79342C9.75366 6.61542 9.19766 6.65642 8.84066 6.65642H8.34766V8.70642H8.99866C9.36966 8.70742 9.80566 8.73442 10.1237 8.48842ZM15.6885 0H3.36153C1.51553 0 0.0195312 1.496 0.0195312 3.342V15.668C0.0195312 17.514 1.51553 19.01 3.36153 19.01H15.6885C17.5335 19.01 19.0305 17.514 19.0305 15.668V3.342C19.0305 1.496 17.5335 0 15.6885 0ZM10.0412 14.3632H6.15723V4.99023H10.4002C11.6292 4.99023 12.7632 5.77223 12.7632 7.15223C12.7632 8.21823 12.1672 8.94823 11.4092 9.17423V9.20123C12.5342 9.43323 13.3372 10.0452 13.3372 11.5182C13.3382 12.8852 12.4092 14.3632 10.0412 14.3632Z"/>
  </symbol>

  <symbol id="instagram" width="18" height="19" viewBox="0 0 18 19">
    <path fill-rule="evenodd" clip-rule="evenodd" d="M14.244 9.50562C14.244 12.3496 11.938 14.6536 9.09603 14.6536C6.25203 14.6536 3.94803 12.3486 3.94803 9.50562C3.94803 9.16663 3.98103 8.83563 4.04403 8.51562H0.582031V15.3596C0.582031 16.8296 1.77203 18.0206 3.24303 18.0206H14.951C16.42 18.0206 17.612 16.8296 17.612 15.3596V8.51562H14.149C14.21 8.83563 14.244 9.16663 14.244 9.50562ZM14.9491 0.990234H3.24108C1.77008 0.990234 0.580078 2.18123 0.580078 3.65023V6.53423H4.89108C5.82308 5.21723 7.35808 4.35623 9.09608 4.35623C10.8321 4.35623 12.3671 5.21623 13.3001 6.53423H17.6111V3.65023C17.6101 2.18223 16.4181 0.990234 14.9491 0.990234ZM16.2501 4.27723C16.2501 4.53923 16.0371 4.75223 15.7751 4.75223H14.3491C14.0881 4.75223 13.8741 4.53923 13.8741 4.27723V2.85123C13.8741 2.58923 14.0881 2.37523 14.3491 2.37523H15.7751C16.0361 2.37523 16.2501 2.58923 16.2501 2.85123V4.27723ZM12.2628 9.50494C12.2628 7.75494 10.8448 6.33594 9.09476 6.33594C7.34476 6.33594 5.92676 7.75494 5.92676 9.50494C5.92676 11.2549 7.34476 12.6729 9.09476 12.6729C10.8448 12.6729 12.2628 11.2549 12.2628 9.50494Z"/>
  </symbol>
</svg>
