<svg width="18" height="17" viewBox="0 0 18 17" fill="none" xmlns="http://www.w3.org/2000/svg">
<path fill-rule="evenodd" clip-rule="evenodd" d="M8.98147 0C6.7029 0 6.41694 0.00996307 5.52201 0.0506893C4.62883 0.0915903 4.01916 0.232996 3.4857 0.440472C2.93389 0.654766 2.4658 0.941423 1.99946 1.40794C1.53277 1.87428 1.24611 2.34237 1.03112 2.89401C0.823117 3.42764 0.681537 4.03749 0.641335 4.93032C0.601308 5.82525 0.59082 6.11138 0.59082 8.38995C0.59082 10.6685 0.600958 10.9536 0.64151 11.8485C0.682585 12.7417 0.823991 13.3514 1.03129 13.8848C1.24576 14.4367 1.53242 14.9047 1.99893 15.3711C2.4651 15.8378 2.93319 16.1251 3.48465 16.3394C4.01847 16.5469 4.62831 16.6883 5.52132 16.7292C6.41624 16.7699 6.70203 16.7799 8.98042 16.7799C11.2592 16.7799 11.5443 16.7699 12.4392 16.7292C13.3324 16.6883 13.9427 16.5469 14.4765 16.3394C15.0282 16.1251 15.4956 15.8378 15.9617 15.3711C16.4284 14.9047 16.7151 14.4367 16.9301 13.885C17.1363 13.3514 17.2779 12.7415 17.3199 11.8487C17.3601 10.9538 17.3705 10.6685 17.3705 8.38995C17.3705 6.11138 17.3601 5.82542 17.3199 4.93049C17.2779 4.03731 17.1363 3.42764 16.9301 2.89418C16.7151 2.34237 16.4284 1.87428 15.9617 1.40794C15.495 0.941248 15.0284 0.654591 14.476 0.440472C13.9412 0.232996 13.3311 0.0915903 12.438 0.0506893C11.543 0.00996307 11.2581 0 8.97885 0H8.98147ZM8.22882 1.51194C8.4522 1.51159 8.70146 1.51194 8.98147 1.51194C11.2216 1.51194 11.4871 1.51998 12.3717 1.56018C13.1897 1.59759 13.6337 1.73427 13.9294 1.84911C14.321 2.00118 14.6001 2.18296 14.8936 2.47661C15.1872 2.77026 15.369 3.04992 15.5214 3.44145C15.6363 3.73685 15.7731 4.18082 15.8104 4.99884C15.8506 5.88328 15.8593 6.14896 15.8593 8.38803C15.8593 10.6271 15.8506 10.8928 15.8104 11.7772C15.773 12.5952 15.6363 13.0392 15.5214 13.3346C15.3694 13.7261 15.1872 14.0049 14.8936 14.2984C14.5999 14.592 14.3212 14.7738 13.9294 14.9259C13.634 15.0413 13.1897 15.1776 12.3717 15.215C11.4873 15.2552 11.2216 15.2639 8.98147 15.2639C6.74118 15.2639 6.47567 15.2552 5.59123 15.215C4.77321 15.1772 4.32924 15.0406 4.03332 14.9257C3.64179 14.7737 3.36213 14.5919 3.06848 14.2982C2.77483 14.0046 2.59305 13.7256 2.44063 13.3339C2.32579 13.0385 2.18893 12.5945 2.1517 11.7765C2.1115 10.8921 2.10346 10.6264 2.10346 8.38593C2.10346 6.14546 2.1115 5.88118 2.1517 4.99674C2.18911 4.17872 2.32579 3.73475 2.44063 3.43901C2.5927 3.04748 2.77483 2.76781 3.06848 2.47416C3.36213 2.18051 3.64179 1.99873 4.03332 1.84631C4.32907 1.73095 4.77321 1.59462 5.59123 1.55704C6.3652 1.52208 6.66514 1.51159 8.22882 1.50984V1.51194ZM13.46 2.90502C12.9041 2.90502 12.4532 3.35546 12.4532 3.91147C12.4532 4.4673 12.9041 4.91826 13.46 4.91826C14.0158 4.91826 14.4668 4.4673 14.4668 3.91147C14.4668 3.35563 14.0158 2.90468 13.46 2.90468V2.90502ZM8.98147 4.08136C6.60204 4.08136 4.67288 6.01053 4.67288 8.38995C4.67288 10.7694 6.60204 12.6977 8.98147 12.6977C11.3609 12.6977 13.2894 10.7694 13.2894 8.38995C13.2894 6.01053 11.3607 4.08136 8.98129 4.08136H8.98147ZM8.98147 5.5933C10.5259 5.5933 11.7781 6.84533 11.7781 8.38995C11.7781 9.9344 10.5259 11.1866 8.98147 11.1866C7.43685 11.1866 6.18482 9.9344 6.18482 8.38995C6.18482 6.84533 7.43685 5.5933 8.98147 5.5933V5.5933Z" fill="black"/>
</svg>
