<svg id="Layer_1" data-name="Layer 1" xmlns="http://www.w3.org/2000/svg" viewBox="0 0 544.59 80.72"><path d="M110.41,36.51c11.75,0,17.79,7,17.79,19.32v2.42H116.78V55.07c0-5.49-2.2-7.58-6-7.58s-6,2.09-6,7.58c0,15.81,23.61,18.77,23.61,40.73,0,12.3-6.15,19.33-18,19.33s-18-7-18-19.33V91.08h11.42v5.49c0,5.49,2.42,7.47,6.26,7.47s6.26-2,6.26-7.47c0-15.81-23.61-18.78-23.61-40.74C92.62,43.54,98.66,36.51,110.41,36.51Z" transform="translate(-92.29 -34.4)"/><path d="M151,83.61l-3.73,7v23.61H135.22V37.39H147.3V70.88l15.81-33.49h12.08l-16.8,34.26,16.8,42.6H162.78Z" transform="translate(-92.29 -34.4)"/><path d="M192.75,69.78h16.58v11H192.75v22.51h20.87v11H180.68V37.39h32.94v11H192.75Z" transform="translate(-92.29 -34.4)"/><path d="M217.57,37.39H254.9v11H242.27v65.88H230.19V48.37H217.57Z" transform="translate(-92.29 -34.4)"/><path d="M295.19,85.59V95.8c0,12.3-6.15,19.33-18,19.33s-18-7-18-19.33v-40c0-12.29,6.15-19.32,18-19.32s18,7,18,19.32V63.3H283.77V55.07c0-5.49-2.41-7.58-6.26-7.58s-6.25,2.09-6.25,7.58v41.5c0,5.49,2.41,7.47,6.25,7.47s6.26-2,6.26-7.47v-11Z" transform="translate(-92.29 -34.4)"/><path d="M314.62,114.25H302.55V37.39h12.07V70.33h13.73V37.39h12.3v76.86h-12.3V81.31H314.62Z" transform="translate(-92.29 -34.4)"/><path d="M375,92l8.23-54.57H400v76.86H388.63V59.13l-8.35,55.12H368.86l-9-54.35v54.35H349.32V37.39h16.8Z" transform="translate(-92.29 -34.4)"/><path d="M447.91,114.25H435.73l-2.09-14H418.82l-2.09,14H405.64l12.3-76.86h17.68ZM420.35,89.87H432L426.17,51Z" transform="translate(-92.29 -34.4)"/><path d="M478.76,114.25c-.65-2-1.09-3.19-1.09-9.44V92.73c0-7.14-2.42-9.78-7.91-9.78h-4.17v31.3H453.51V37.39h18.23c12.51,0,17.89,5.82,17.89,17.68v6c0,7.91-2.52,13.07-7.9,15.6,6,2.52,8,8.34,8,16.36v11.85c0,3.74.11,6.48,1.32,9.34ZM465.59,48.37V72h4.72c4.5,0,7.25-2,7.25-8.12V56.27c0-5.49-1.87-7.9-6.15-7.9Z" transform="translate(-92.29 -34.4)"/><path d="M513.46,83.61l-3.73,7v23.61H497.65V37.39h12.08V70.88l15.81-33.49h12.07l-16.8,34.26,16.8,42.6h-12.4Z" transform="translate(-92.29 -34.4)"/><path d="M555.18,69.78h16.58v11H555.18v22.51H576v11H543.1V37.39H576v11H555.18Z" transform="translate(-92.29 -34.4)"/><path d="M608.76,114.25c-.66-2-1.1-3.19-1.1-9.44V92.73c0-7.14-2.41-9.78-7.9-9.78h-4.18v31.3H583.51V37.39h18.22c12.52,0,17.9,5.82,17.9,17.68v6c0,7.91-2.53,13.07-7.91,15.6,6,2.52,8,8.34,8,16.36v11.85c0,3.74.11,6.48,1.32,9.34ZM595.58,48.37V72h4.72c4.51,0,7.25-2,7.25-8.12V56.27c0-5.49-1.87-7.9-6.15-7.9Z" transform="translate(-92.29 -34.4)"/><path d="M630.48,34.4a6.38,6.38,0,0,1,6.4,6.4A6.23,6.23,0,0,1,635,45.35a6.14,6.14,0,0,1-4.53,1.88,6.29,6.29,0,0,1-3.23-.87A6.56,6.56,0,0,1,624.91,44a6.41,6.41,0,0,1,2.34-8.78A6.46,6.46,0,0,1,630.48,34.4Zm-3.7,10.07a5.2,5.2,0,0,0,8.89-3.67,5.15,5.15,0,0,0-.69-2.61,4.92,4.92,0,0,0-1.89-1.87,5.18,5.18,0,0,0-2.61-.67,5.39,5.39,0,0,0-2.66.67,4.83,4.83,0,0,0-1.88,1.87,5.24,5.24,0,0,0-.68,2.61A5,5,0,0,0,626.78,44.47Zm6.4-4.88a1.87,1.87,0,0,1-1.35,1.92L633.35,44H632l-1.38-2.39h-1.14V44h-1.25V37.4H631a2.12,2.12,0,0,1,2.19,2.19Zm-3.67-1.05v2h1.38a1.1,1.1,0,0,0,.79-.27,1,1,0,0,0,0-1.43,1.08,1.08,0,0,0-.77-.29Z" transform="translate(-92.29 -34.4)"/></svg>