<svg xmlns="http://www.w3.org/2000/svg">
  <symbol id="avatar" viewBox="0 0 17 21">
    <path fill-rule="evenodd" clip-rule="evenodd" d="M3.79193 16.4101C3.47269 16.4958 3.1566 16.5913 2.84241 16.6905C1.96544 16.9684 1.09919 17.2788 0.239258 17.6045C2.47206 19.5465 5.41275 20.7373 8.64745 20.7373C11.7389 20.7373 14.5673 19.6549 16.761 17.8641C15.6216 17.3499 14.0134 16.8307 14.0134 16.8307C12.1011 16.4738 11.5225 16.0476 11.5225 16.0476C10.9086 15.7758 11.014 13.2057 11.014 13.2057C11.961 13.0863 11.9086 10.2609 11.9086 10.2609C12.5749 10.6692 12.6279 9.81823 12.6279 9.81823C12.6626 9.49498 12.838 8.89928 12.838 8.89928C13.4872 6.9077 12.5396 7.38402 12.5396 7.38402C13.0657 5.44387 12.838 3.77616 12.838 3.77616C12.7244 2.94598 12.3288 2.25539 11.6153 1.77295C11.3736 1.60949 11.1112 1.47541 10.8367 1.37195C10.4632 1.23113 10.0765 1.04073 9.6935 0.938488C9.3812 0.854613 9.06006 0.805635 8.73767 0.775024C8.38246 0.741963 8.02032 0.726045 7.66385 0.746249C7.3301 0.746249 7.17237 0.950733 7.17237 0.950733C7.1219 1.01502 6.69098 1.09338 6.59193 1.13869C6.41527 1.21889 6.24303 1.30889 6.07458 1.40439C5.64682 1.64867 5.26638 1.96397 4.86827 2.24927C4.55723 2.47212 4.16228 2.6215 3.9402 2.94231C3.74651 3.22271 3.63988 3.55331 3.57932 3.88269C3.51055 4.25982 3.46638 4.70552 3.54209 5.08633C3.62916 5.52897 3.75219 7.5034 3.75219 7.5034C3.05061 7.36749 3.43673 8.37154 3.43673 8.37154C3.57679 8.55888 3.76985 9.58008 3.76985 9.58008C3.94525 11.0611 4.68215 10.4654 4.68215 10.4654C4.55912 13.0863 5.47143 13.2222 5.47143 13.2222C5.59382 14.754 5.29603 15.6393 5.29603 15.6393C5.07332 16.2062 4.31054 16.2711 3.79193 16.4101Z"/>
  </symbol>

  <symbol id="arrowDown" viewBox="0 0 16 9">
    <path fill-rule="evenodd" clip-rule="evenodd" d="M15.0709 1.84309L8.70692 8.20705C8.31639 8.59758 7.68323 8.59758 7.2927 8.20705L0.928741 1.84309C0.538216 1.45257 0.538216 0.819404 0.928741 0.42888C1.31926 0.0383552 1.95243 0.0383552 2.34295 0.42888L7.99981 6.08573L13.6567 0.42888C14.0472 0.0383552 14.6804 0.0383552 15.0709 0.42888C15.4614 0.819404 15.4614 1.45257 15.0709 1.84309Z"/>
  </symbol>

  <symbol id="arrowLeft" viewBox="0 0 12 20">
    <path d="M4.02031 10L11.5816 17.5613C12.1395 18.1192 12.1395 19.0237 11.5816 19.5816C11.0237 20.1395 10.1192 20.1395 9.56128 19.5816L0.989847 11.0102C0.431955 10.4523 0.431955 9.54774 0.989847 8.98985L9.56128 0.418419C10.1192 -0.139473 11.0237 -0.139473 11.5816 0.418419C12.1395 0.976311 12.1395 1.88083 11.5816 2.43872L4.02031 10Z"/>
  </symbol>

  <symbol id="arrowRight" viewBox="0 0 12 20">
    <path d="M7.97969 10L0.418419 17.5613C-0.139473 18.1192 -0.139473 19.0237 0.418419 19.5816C0.976311 20.1395 1.88083 20.1395 2.43872 19.5816L11.0102 11.0102C11.568 10.4523 11.568 9.54774 11.0102 8.98985L2.43872 0.418419C1.88083 -0.139473 0.976311 -0.139473 0.418419 0.418419C-0.139473 0.976311 -0.139473 1.88083 0.418419 2.43872L7.97969 10Z"/>
  </symbol>

  <symbol id="arrowRightLong" viewBox="0 0 24 16">
    <path fill-rule="evenodd" clip-rule="evenodd" d="M16.8431 0.92888L23.2071 7.29284C23.5976 7.68336 23.5976 8.31653 23.2071 8.70705L16.8431 15.071C16.4526 15.4615 15.8195 15.4615 15.4289 15.071C15.0384 14.6805 15.0384 14.0473 15.4289 13.6568L20.0858 8.99995H0L0 6.99995H20.0858L15.4289 2.34309C15.0384 1.95257 15.0384 1.3194 15.4289 0.92888C15.8195 0.538355 16.4526 0.538355 16.8431 0.92888Z"/>
  </symbol>

  <symbol id="basket" viewBox="0 0 26 22">
    <path fill-rule="evenodd" clip-rule="evenodd" d="M17.4759 17.3674L18.3369 11.6185C18.3908 11.265 18.7249 11.0279 19.0718 11.0754C19.4253 11.1271 19.6688 11.4568 19.616 11.8103L18.755 17.5592C18.7065 17.8803 18.4307 18.1088 18.116 18.1088C18.0837 18.1088 18.0525 18.1077 18.019 18.1034C17.6667 18.0495 17.4231 17.7208 17.4759 17.3674ZM14.376 17.4256V11.7521C14.376 11.3944 14.6658 11.1045 15.0225 11.1045C15.3803 11.1045 15.6691 11.3944 15.6691 11.7521V17.4256C15.6691 17.7823 15.3803 18.0711 15.0225 18.0711C14.6658 18.0711 14.376 17.7823 14.376 17.4256ZM10.8525 17.4256V11.7521C10.8525 11.3944 11.1413 11.1045 11.4991 11.1045C11.8558 11.1045 12.1456 11.3944 12.1456 11.7521V17.4256C12.1456 17.7823 11.8558 18.0711 11.4991 18.0711C11.1413 18.0711 10.8525 17.7823 10.8525 17.4256ZM6.90563 11.8105C6.85283 11.4571 7.09637 11.1273 7.44874 11.0756C7.80111 11.0228 8.13193 11.2642 8.18365 11.6187L9.04572 17.3676C9.09852 17.7211 8.85499 18.0497 8.50154 18.1036C8.46921 18.1079 8.43688 18.109 8.40563 18.109C8.09098 18.109 7.81512 17.8806 7.76662 17.5594L6.90563 11.8105ZM25.1142 7.44059H23.7877H23.7726H21.0528L18.7435 0.510636C18.6293 0.172274 18.2629 -0.0119931 17.9256 0.102231C17.5873 0.215378 17.4041 0.580679 17.5161 0.920119L19.6896 7.44059H6.84156L9.01505 0.920119C9.1282 0.580679 8.94501 0.215378 8.60665 0.102231C8.26829 -0.00983789 7.90191 0.172274 7.78876 0.510636L5.47842 7.44059H2.75104H2.72518H1.40729C1.04954 7.44059 0.760742 7.72939 0.760742 8.08714C0.760742 8.44383 1.04954 8.7337 1.40729 8.7337H2.19932L4.22195 19.1734C4.50967 20.6593 5.81678 21.7369 7.33079 21.7369H19.1885C20.7026 21.7369 22.0097 20.6593 22.2974 19.1734L24.32 8.7337H25.1142C25.4709 8.7337 25.7607 8.44383 25.7607 8.08714C25.7607 7.72939 25.4709 7.44059 25.1142 7.44059Z"/>
  </symbol>

  <symbol id="close" width="26" height="26" viewBox="0 0 26 26">
    <path fill-rule="evenodd" clip-rule="evenodd" d="M18.1647 16.2277C18.7033 16.7663 18.707 17.6299 18.1684 18.1703C17.6354 18.7033 16.7681 18.707 16.2277 18.1666L12.9981 14.9389L9.77043 18.1666C9.23 18.7033 8.36829 18.707 7.82971 18.1703C7.29486 17.6336 7.293 16.77 7.83343 16.2277L11.0611 13L7.83343 9.77229C7.29857 9.23557 7.293 8.372 7.82971 7.83157C8.36457 7.29486 9.22814 7.293 9.77043 7.83157L12.9981 11.0593L16.2277 7.83157C16.7644 7.29671 17.6317 7.293 18.1684 7.83157C18.7033 8.36643 18.707 9.22814 18.1647 9.77229L14.9389 13L18.1647 16.2277ZM13 0C5.82214 0 0 5.82214 0 13C0 20.1779 5.82214 26 13 26C20.1797 26 26 20.1779 26 13C26 5.82214 20.1797 0 13 0Z"/>
  </symbol>

  <symbol id="cloud" viewBox="0 0 49 40">
    <path fill-rule="evenodd" clip-rule="evenodd" d="M20.0438 0.117049C16.4272 -0.295618 12.7705 0.397791 9.55602 2.1058C6.34155 3.81381 3.72038 6.45616 2.03831 9.68428C0.356237 12.9124 -0.307711 16.5746 0.134059 20.1878C0.575829 23.8009 2.10256 27.1953 4.51284 29.923C4.68617 30.122 4.89714 30.2846 5.1336 30.4016C5.37005 30.5186 5.62733 30.5877 5.89059 30.6048C6.15386 30.622 6.41792 30.5869 6.66757 30.5016C6.91721 30.4162 7.1475 30.2823 7.34518 30.1076C7.54285 29.9329 7.70401 29.7208 7.81936 29.4835C7.93471 29.2462 8.00197 28.9885 8.01728 28.7251C8.03258 28.4617 7.99563 28.1979 7.90854 27.9489C7.82145 27.6998 7.68595 27.4705 7.50984 27.274C6.10887 25.6881 5.08562 23.8052 4.51701 21.7669C3.9484 19.7286 3.84923 17.5879 4.22694 15.5057C4.60464 13.4236 5.44941 11.4541 6.69774 9.74543C7.94607 8.03672 9.56549 6.6332 11.4343 5.64038C13.303 4.64756 15.3725 4.09125 17.4872 4.01328C19.6019 3.93532 21.7068 4.33771 23.6436 5.19022C25.5804 6.04274 27.2988 7.32319 28.6696 8.93533C30.0403 10.5475 31.0278 12.4494 31.5578 14.498C31.6687 14.9274 31.9192 15.3078 32.2698 15.5793C32.6204 15.8509 33.0514 15.9982 33.4948 15.998H36.0148C37.7925 15.999 39.5191 16.5921 40.9223 17.6835C42.3254 18.7749 43.325 20.3026 43.7634 22.0254C44.2017 23.7481 44.0538 25.5678 43.3429 27.1971C42.6321 28.8264 41.3988 30.1726 39.8378 31.0231C39.6072 31.1488 39.4037 31.3187 39.2387 31.5231C39.0738 31.7276 38.9508 31.9625 38.8766 32.2144C38.8025 32.4664 38.7787 32.7305 38.8066 32.9917C38.8345 33.2528 38.9136 33.5059 39.0393 33.7365C39.2933 34.2023 39.7218 34.548 40.2307 34.6978C40.4827 34.7719 40.7468 34.7957 41.008 34.7678C41.2691 34.7399 41.5222 34.6608 41.7528 34.535C44.094 33.2588 45.9434 31.2393 47.0092 28.7952C48.075 26.3511 48.2965 23.6216 47.6388 21.0376C46.981 18.4536 45.4815 16.1623 43.3768 14.5252C41.2721 12.8882 38.6822 11.9986 36.0158 11.997H34.9728C33.8473 8.81706 31.851 6.01726 29.2115 3.9168C26.5719 1.81634 23.3954 0.499732 20.0438 0.117049ZM33.4298 29.413C33.2441 29.5989 33.0236 29.7462 32.7809 29.8468C32.5382 29.9474 32.278 29.9991 32.0153 29.9991C31.7526 29.9991 31.4925 29.9474 31.2498 29.8468C31.0071 29.7462 30.7866 29.5989 30.6008 29.413L26.0148 24.827V38C26.0148 38.5305 25.8041 39.0392 25.4291 39.4143C25.054 39.7893 24.5453 40 24.0148 40C23.4844 40 22.9757 39.7893 22.6006 39.4143C22.2256 39.0392 22.0148 38.5305 22.0148 38V24.827L17.4278 29.413C17.0527 29.7882 16.5439 29.999 16.0133 29.999C15.4828 29.999 14.974 29.7882 14.5988 29.413C14.2237 29.0379 14.0129 28.5291 14.0129 27.9986C14.0129 27.468 14.2237 26.9592 14.5988 26.584L22.5988 18.584H22.5998L22.6098 18.574L22.6108 18.5721L22.6148 18.569C22.8944 18.2938 23.2489 18.1072 23.634 18.0325C24.0191 17.9578 24.4177 17.9983 24.7798 18.149C25.0158 18.247 25.2368 18.392 25.4288 18.583L33.4288 26.584C33.6148 26.7698 33.7623 26.9904 33.863 27.2332C33.9636 27.476 34.0154 27.7362 34.0154 27.9991C34.0154 28.2619 33.9636 28.5221 33.863 28.7649C33.7623 29.0077 33.6148 29.2283 33.4288 29.414L33.4298 29.413Z"/>
  </symbol>

  <symbol id="comments" viewBox="0 0 21 21">
    <path fill-rule="evenodd" clip-rule="evenodd" d="M18.9962 13.7471C19.6602 12.4326 20.0054 10.9757 20.0017 9.49876V9.00003C19.734 4.1202 15.8816 0.267728 11.0568 0.00155019L10.5017 3.18317e-05C9.02697 -0.00381667 7.56958 0.341354 6.25088 1.00743C3.0366 2.61387 1.00312 5.90204 1.00173 9.49965C0.998251 10.8327 1.2798 12.1513 1.82562 13.3661L0.0530458 18.6838C-0.20754 19.4656 0.536199 20.2093 1.31796 19.9487L6.63568 18.1761C7.85051 18.722 9.16926 19.0035 10.5043 19C14.0997 18.9986 17.3879 16.9652 18.9962 13.7471ZM6.38564 16.1513L2.58301 17.4189L3.85055 13.6163C3.93487 13.3633 3.91468 13.0872 3.79447 12.8492C3.27041 11.8116 2.99884 10.665 3.00187 9.50264C3.00297 6.6602 4.60834 4.06427 7.14893 2.79453C8.19025 2.26857 9.3369 1.99699 10.4993 2.00003L11.0019 2.00003C14.7537 2.20853 17.7934 5.24824 18.0034 9.05511L18.0019 9.50264C18.0049 10.665 17.7333 11.8116 17.2093 12.8492C15.9376 15.3936 13.3417 16.9989 10.5015 17C9.3369 17.0031 8.19025 16.7315 7.15272 16.2074C6.91473 16.0872 6.63859 16.067 6.38564 16.1513Z"/>
  </symbol>

  <symbol id="delete" viewBox="0 0 12 14">
    <path fill-rule="evenodd" clip-rule="evenodd" d="M3 2.4H1.8H0.6C0.268629 2.4 0 2.66863 0 3C0 3.33137 0.268629 3.6 0.6 3.6H1.2V11.4C1.2 12.3941 2.00589 13.2 3 13.2H9C9.99411 13.2 10.8 12.3941 10.8 11.4V3.6H11.4C11.7314 3.6 12 3.33137 12 3C12 2.66863 11.7314 2.4 11.4 2.4H10.2H9V1.8C9 0.805887 8.19411 0 7.2 0H4.8C3.80589 0 3 0.805887 3 1.8V2.4ZM4.2 2.4H7.8V1.8C7.8 1.46863 7.53137 1.2 7.2 1.2H4.8C4.46863 1.2 4.2 1.46863 4.2 1.8V2.4ZM8.4 3.6H3.6L2.4 3.6V11.4C2.4 11.7314 2.66863 12 3 12H9C9.33137 12 9.6 11.7314 9.6 11.4V3.6L8.4 3.6Z"/>
  </symbol>

  <symbol id="edit" viewBox="0 0 12 12">
    <path fill-rule="evenodd" clip-rule="evenodd" d="M11.8243 3.17574L8.82426 0.175736C8.58995 -0.0585786 8.21005 -0.0585786 7.97574 0.175736L0.175736 7.97574C0.0632141 8.08826 0 8.24087 0 8.4V11.4C0 11.7314 0.268629 12 0.6 12H3.6C3.75913 12 3.91174 11.9368 4.02426 11.8243L11.8243 4.02426C12.0586 3.78995 12.0586 3.41005 11.8243 3.17574ZM1.20005 10.8V8.64853L8.40004 1.44853L10.5515 3.6L3.35152 10.8H1.20005Z"/>
  </symbol>

  <symbol id="facebookCircle" viewBox="0 0 20 20">
    <path fill-rule="evenodd" clip-rule="evenodd" d="M9.505 0.791016C4.256 0.791016 0 5.04602 0 10.296C0 15.546 4.256 19.801 9.505 19.801C14.754 19.801 19.01 15.546 19.01 10.296C19.01 5.04602 14.754 0.791016 9.505 0.791016ZM11.755 7.35902H10.326C10.157 7.35902 9.969 7.58102 9.969 7.87902V8.91002H11.755V10.382H9.969V14.798H8.282V10.382H6.753V8.91002H8.282V8.04502C8.282 6.80402 9.143 5.79402 10.326 5.79402H11.755V7.35902Z"/>
  </symbol>

  <symbol id="facebookLetter" viewBox="0 0 8 17">
    <path fill-rule="evenodd" clip-rule="evenodd" d="M5.31965 17V8.499H7.68636L8 5.56951H5.31965L5.32367 4.10328C5.32367 3.33922 5.39689 2.92982 6.50368 2.92982H7.98325V0H5.6162C2.773 0 1.77227 1.42112 1.77227 3.81099V5.56985H0V8.49934H1.77227V17H5.31965Z"/>
  </symbol>

  <symbol id="facebookSquare" viewBox="0 0 30 30">
    <path fill-rule="evenodd" clip-rule="evenodd" d="M26.4996 1H5.50041C3.5751 1 2 2.57346 2 4.49877V25.4979C2 27.4233 3.5751 28.9984 5.50041 28.9984H16.1217V18.9591H12.7676V14.5857H16.1217V12.394C16.1217 9.01691 18.6159 6.37146 21.7989 6.37146H24.89V11.3105H22.1245C21.4011 11.3105 21.189 11.7265 21.189 12.3019V14.5873H24.89V18.9608H21.189V29H26.4996C28.4249 29 30 27.4249 30 25.4996V4.49712C30 2.57346 28.4249 1 26.4996 1V1Z"/>
  </symbol>

  <symbol id="favorites" viewBox="0 0 30 28">
    <path fill-rule="evenodd" clip-rule="evenodd" d="M13.2967 1.89188C3.81432 -5.4353 -11.8683 9.66713 14.7557 27.5C41.3796 9.66713 25.697 -5.4353 16.2146 1.89188C15.7081 2.28322 15.2194 2.73855 14.7557 3.26087C14.292 2.73855 13.8032 2.28322 13.2967 1.89188ZM14.7557 25.0769C20.8981 20.7835 24.3724 16.7842 26.0939 13.4265C27.9032 9.89748 27.7559 7.1507 26.8942 5.32736C25.1856 1.7119 19.9364 0.437731 16.2513 4.58866L14.7557 6.2734L13.26 4.58866C9.57496 0.437731 4.32572 1.7119 2.61713 5.32736C1.75547 7.1507 1.60813 9.89748 3.41741 13.4265C5.13893 16.7842 8.61324 20.7835 14.7557 25.0769Z"/>
  </symbol>

  <symbol id="grid" viewBox="0 0 17 17">
    <path fill-rule="evenodd" clip-rule="evenodd" d="M3.5 7C5.433 7 7 5.433 7 3.5C7 1.567 5.433 0 3.5 0C1.567 0 0 1.567 0 3.5C0 5.433 1.567 7 3.5 7ZM13.5 7C15.433 7 17 5.433 17 3.5C17 1.567 15.433 0 13.5 0C11.567 0 10 1.567 10 3.5C10 5.433 11.567 7 13.5 7ZM7 13.5C7 15.433 5.433 17 3.5 17C1.567 17 0 15.433 0 13.5C0 11.567 1.567 10 3.5 10C5.433 10 7 11.567 7 13.5ZM13.5 17C15.433 17 17 15.433 17 13.5C17 11.567 15.433 10 13.5 10C11.567 10 10 11.567 10 13.5C10 15.433 11.567 17 13.5 17Z"/>
  </symbol>

  <symbol id="heart" viewBox="0 0 21 19">
    <path fill-rule="evenodd" clip-rule="evenodd" d="M10.7607 18.7376C29.7677 6.21408 16.9587 -4.28954 10.7607 2.57821C4.56283 -4.28954 -8.24619 6.21408 10.7607 18.7376Z"/>
  </symbol>

  <symbol id="instagram" viewBox="0 0 18 19">
    <path fill-rule="evenodd" clip-rule="evenodd" d="M14.244 9.50562C14.244 12.3496 11.938 14.6536 9.09603 14.6536C6.25203 14.6536 3.94803 12.3486 3.94803 9.50562C3.94803 9.16663 3.98103 8.83563 4.04403 8.51562H0.582031V15.3596C0.582031 16.8296 1.77203 18.0206 3.24303 18.0206H14.951C16.42 18.0206 17.612 16.8296 17.612 15.3596V8.51562H14.149C14.21 8.83563 14.244 9.16663 14.244 9.50562ZM14.9491 0.990234H3.24108C1.77008 0.990234 0.580078 2.18123 0.580078 3.65023V6.53423H4.89108C5.82308 5.21723 7.35808 4.35623 9.09608 4.35623C10.8321 4.35623 12.3671 5.21623 13.3001 6.53423H17.6111V3.65023C17.6101 2.18223 16.4181 0.990234 14.9491 0.990234ZM16.2501 4.27723C16.2501 4.53923 16.0371 4.75223 15.7751 4.75223H14.3491C14.0881 4.75223 13.8741 4.53923 13.8741 4.27723V2.85123C13.8741 2.58923 14.0881 2.37523 14.3491 2.37523H15.7751C16.0361 2.37523 16.2501 2.58923 16.2501 2.85123V4.27723ZM12.2628 9.50494C12.2628 7.75494 10.8448 6.33594 9.09476 6.33594C7.34476 6.33594 5.92676 7.75494 5.92676 9.50494C5.92676 11.2549 7.34476 12.6729 9.09476 12.6729C10.8448 12.6729 12.2628 11.2549 12.2628 9.50494Z"/>
  </symbol>

  <symbol id="instagramOutline" viewBox="0 0 18 17">
    <path fill-rule="evenodd" clip-rule="evenodd" d="M8.98147 0C6.7029 0 6.41694 0.00996307 5.52201 0.0506893C4.62883 0.0915903 4.01916 0.232996 3.4857 0.440472C2.93389 0.654766 2.4658 0.941423 1.99946 1.40794C1.53277 1.87428 1.24611 2.34237 1.03112 2.89401C0.823117 3.42764 0.681537 4.03749 0.641335 4.93032C0.601308 5.82525 0.59082 6.11138 0.59082 8.38995C0.59082 10.6685 0.600958 10.9536 0.64151 11.8485C0.682585 12.7417 0.823991 13.3514 1.03129 13.8848C1.24576 14.4367 1.53242 14.9047 1.99893 15.3711C2.4651 15.8378 2.93319 16.1251 3.48465 16.3394C4.01847 16.5469 4.62831 16.6883 5.52132 16.7292C6.41624 16.7699 6.70203 16.7799 8.98042 16.7799C11.2592 16.7799 11.5443 16.7699 12.4392 16.7292C13.3324 16.6883 13.9427 16.5469 14.4765 16.3394C15.0282 16.1251 15.4956 15.8378 15.9617 15.3711C16.4284 14.9047 16.7151 14.4367 16.9301 13.885C17.1363 13.3514 17.2779 12.7415 17.3199 11.8487C17.3601 10.9538 17.3705 10.6685 17.3705 8.38995C17.3705 6.11138 17.3601 5.82542 17.3199 4.93049C17.2779 4.03731 17.1363 3.42764 16.9301 2.89418C16.7151 2.34237 16.4284 1.87428 15.9617 1.40794C15.495 0.941248 15.0284 0.654591 14.476 0.440472C13.9412 0.232996 13.3311 0.0915903 12.438 0.0506893C11.543 0.00996307 11.2581 0 8.97885 0H8.98147ZM8.22882 1.51194C8.4522 1.51159 8.70146 1.51194 8.98147 1.51194C11.2216 1.51194 11.4871 1.51998 12.3717 1.56018C13.1897 1.59759 13.6337 1.73427 13.9294 1.84911C14.321 2.00118 14.6001 2.18296 14.8936 2.47661C15.1872 2.77026 15.369 3.04992 15.5214 3.44145C15.6363 3.73685 15.7731 4.18082 15.8104 4.99884C15.8506 5.88328 15.8593 6.14896 15.8593 8.38803C15.8593 10.6271 15.8506 10.8928 15.8104 11.7772C15.773 12.5952 15.6363 13.0392 15.5214 13.3346C15.3694 13.7261 15.1872 14.0049 14.8936 14.2984C14.5999 14.592 14.3212 14.7738 13.9294 14.9259C13.634 15.0413 13.1897 15.1776 12.3717 15.215C11.4873 15.2552 11.2216 15.2639 8.98147 15.2639C6.74118 15.2639 6.47567 15.2552 5.59123 15.215C4.77321 15.1772 4.32924 15.0406 4.03332 14.9257C3.64179 14.7737 3.36213 14.5919 3.06848 14.2982C2.77483 14.0046 2.59305 13.7256 2.44063 13.3339C2.32579 13.0385 2.18893 12.5945 2.1517 11.7765C2.1115 10.8921 2.10346 10.6264 2.10346 8.38593C2.10346 6.14546 2.1115 5.88118 2.1517 4.99674C2.18911 4.17872 2.32579 3.73475 2.44063 3.43901C2.5927 3.04748 2.77483 2.76781 3.06848 2.47416C3.36213 2.18051 3.64179 1.99873 4.03332 1.84631C4.32907 1.73095 4.77321 1.59462 5.59123 1.55704C6.3652 1.52208 6.66514 1.51159 8.22882 1.50984V1.51194ZM13.46 2.90502C12.9041 2.90502 12.4532 3.35546 12.4532 3.91147C12.4532 4.4673 12.9041 4.91826 13.46 4.91826C14.0158 4.91826 14.4668 4.4673 14.4668 3.91147C14.4668 3.35563 14.0158 2.90468 13.46 2.90468V2.90502ZM8.98147 4.08136C6.60204 4.08136 4.67288 6.01053 4.67288 8.38995C4.67288 10.7694 6.60204 12.6977 8.98147 12.6977C11.3609 12.6977 13.2894 10.7694 13.2894 8.38995C13.2894 6.01053 11.3607 4.08136 8.98129 4.08136H8.98147ZM8.98147 5.5933C10.5259 5.5933 11.7781 6.84533 11.7781 8.38995C11.7781 9.9344 10.5259 11.1866 8.98147 11.1866C7.43685 11.1866 6.18482 9.9344 6.18482 8.38995C6.18482 6.84533 7.43685 5.5933 8.98147 5.5933Z"/>
  </symbol>

  <symbol id="like" viewBox="0 0 19 21">
    <path d="M52.51,53.8a2.42,2.42,0,0,0-.42-1.38,2.71,2.71,0,0,0,.41-1.68,2.3,2.3,0,0,0-2.2-2.21H46a13.48,13.48,0,0,0,.52-3.24c0-1.92-1.4-3.74-2.5-3.74a2.45,2.45,0,0,0-1.53.6.72.72,0,0,0-.22.53v2.91l-1.94,4.88a.57.57,0,0,0-.43-.19H36.14A2.3,2.3,0,0,0,34,52.71v7a2.3,2.3,0,0,0,2.13,2.43h2.25a2.13,2.13,0,0,0,1.9-1.34,4.54,4.54,0,0,0,1.85.47H49A2.05,2.05,0,0,0,51,59.52a2.55,2.55,0,0,0-.08-1.26,2.3,2.3,0,0,0,.87-1.84,2.54,2.54,0,0,0-.12-.78A2.28,2.28,0,0,0,52.51,53.8ZM38.39,61H36.14A1.23,1.23,0,0,1,35,59.69v-7a1.24,1.24,0,0,1,1.13-1.31h3.28a.73.73,0,0,0-.16.43v7.86a.72.72,0,0,0,.17.46A1.13,1.13,0,0,1,38.39,61Zm12.29-6.12a.4.4,0,0,0-.31.3.48.48,0,0,0,.1.46,1.12,1.12,0,0,1,.29.78,1,1,0,0,1-.83,1.08.41.41,0,0,0-.31.3.46.46,0,0,0,.1.45,1.2,1.2,0,0,1,.27,1,1,1,0,0,1-1,.84H42.14a3.76,3.76,0,0,1-1.63-.46V52l.3-.17a.45.45,0,0,0,.17-.21l2.25-5.67a.57.57,0,0,0,0-.18V42.91a1.45,1.45,0,0,1,.75-.23c.41,0,1.5,1.18,1.5,2.61a15.3,15.3,0,0,1-.72,3.77.53.53,0,0,0,0,.41.38.38,0,0,0,.31.18H50.3a1.27,1.27,0,0,1,1.21,1.19A1.36,1.36,0,0,1,51,52.07a.46.46,0,0,0-.17.39.42.42,0,0,0,.2.37,1.11,1.11,0,0,1,.51,1A1,1,0,0,1,50.68,54.87Z" transform="translate(-34.01 -41.55)"></path>
  </symbol>

  <symbol id="play" viewBox="0 0 26 30">
    <path fill-rule="evenodd" clip-rule="evenodd" d="M0 0L25.5882 15L0 30V0Z"/>
  </symbol>

  <symbol id="search" viewBox="0 0 20 20">
    <path fill-rule="evenodd" clip-rule="evenodd" d="M15.8291 8.05174C15.8291 12.3541 12.3392 15.8418 8.03415 15.8418C3.72915 15.8418 0.239258 12.3541 0.239258 8.05174C0.239258 3.74943 3.72915 0.261719 8.03415 0.261719C12.3392 0.261719 15.8291 3.74943 15.8291 8.05174ZM2.1875 8.0515C2.1875 11.2782 4.80492 13.894 8.03367 13.894C11.2624 13.894 13.8798 11.2782 13.8798 8.0515C13.8798 4.82477 11.2624 2.20898 8.03367 2.20898C4.80492 2.20898 2.1875 4.82477 2.1875 8.0515Z"/>
    <path fill-rule="evenodd" clip-rule="evenodd" d="M17.5586 19.4338C17.9292 19.8237 18.5459 19.8396 18.9361 19.4692C19.3262 19.0988 19.3421 18.4825 18.9714 18.0926L13.6124 12.4545C13.2418 12.0646 12.6251 12.0487 12.2349 12.4191C11.8448 12.7895 11.8289 13.4058 12.1996 13.7958L17.5586 19.4338Z"/>
  </symbol>

  <symbol id="star" viewBox="0 0 20 19">
    <path d="M10 0L12.2451 6.90983H19.5106L13.6327 11.1803L15.8779 18.0902L10 13.8197L4.12215 18.0902L6.36729 11.1803L0.489435 6.90983H7.75486L10 0Z"/>
  </symbol>

  <symbol id="string" viewBox="0 0 14 12">
    <path fill-rule="evenodd" clip-rule="evenodd" d="M0 2V0H14V2H0ZM0 7H14V5H0V7ZM0 12H14V10H0V12Z"/>
  </symbol>

  <symbol id="views" viewBox="0 0 24 18">
    <path fill-rule="evenodd" clip-rule="evenodd" d="M0.894336 7.20747C0.509967 7.80263 0.246141 8.27165 0.105573 8.55279C-0.0351909 8.83431 -0.0351909 9.16569 0.105573 9.44721C0.246141 9.72835 0.509967 10.1974 0.894336 10.7925C1.5305 11.7776 2.28113 12.762 3.14546 13.6839C5.66131 16.3675 8.6202 18 12 18C15.3798 18 18.3387 16.3675 20.8545 13.6839C21.7189 12.762 22.4695 11.7776 23.1057 10.7925C23.49 10.1974 23.7539 9.72835 23.8944 9.44721C24.0352 9.16569 24.0352 8.83431 23.8944 8.55279C23.7539 8.27165 23.49 7.80263 23.1057 7.20747C22.4695 6.22245 21.7189 5.23802 20.8545 4.31606C18.3387 1.63249 15.3798 0 12 0C8.6202 0 5.66131 1.63249 3.14546 4.31606C2.28113 5.23802 1.5305 6.22245 0.894336 7.20747ZM4.60445 12.3161C3.82816 11.488 3.1491 10.5974 2.57433 9.70747C2.41119 9.45487 2.2665 9.21763 2.14063 9C2.2665 8.78237 2.41119 8.54513 2.57433 8.29253C3.1491 7.40255 3.82816 6.51198 4.60445 5.68394C6.7761 3.36751 9.25472 2 11.9999 2C14.7451 2 17.2237 3.36751 19.3954 5.68394C20.1717 6.51198 20.8507 7.40255 21.4255 8.29253C21.5886 8.54513 21.7333 8.78237 21.8592 9C21.7333 9.21763 21.5886 9.45487 21.4255 9.70747C20.8507 10.5974 20.1717 11.488 19.3954 12.3161C17.2237 14.6325 14.7451 16 11.9999 16C9.25472 16 6.7761 14.6325 4.60445 12.3161ZM12 13C9.79086 13 8 11.2091 8 9C8 6.79086 9.79086 5 12 5C14.2091 5 16 6.79086 16 9C16 11.2091 14.2091 13 12 13ZM14 9C14 10.1046 13.1046 11 12 11C10.8954 11 10 10.1046 10 9C10 7.89543 10.8954 7 12 7C13.1046 7 14 7.89543 14 9Z"/>
  </symbol>

  <symbol id="vkontakte" viewBox="0 0 30 30">
    <path fill-rule="evenodd" clip-rule="evenodd" d="M17.5089 16.4316C17.0597 16.1695 16.4352 16.1695 15.9286 16.1695H14.2643V19.5999H15.7931C16.3586 19.5999 17.0789 19.6396 17.5664 19.2979C18.0141 18.9974 18.2689 18.4053 18.2689 17.8427C18.2689 17.3183 17.9567 16.6923 17.5089 16.4316V16.4316ZM16.8811 13.5023C17.2522 13.221 17.4466 12.7172 17.4466 12.2533C17.4466 11.7495 17.2125 11.2664 16.7839 11.0057C16.3361 10.7435 15.5172 10.8039 14.9914 10.8039H14.2653V13.8234H15.2241C15.7706 13.8249 16.4127 13.8646 16.8811 13.5023V13.5023ZM25.0778 1H6.9222C4.20336 1 2 3.20347 2 5.92246V24.0775C2 26.7965 4.20336 29 6.9222 29H25.0778C27.7952 29 30 26.7965 30 24.0775V5.92246C30 3.20347 27.7952 1 25.0778 1V1ZM16.761 22.1552H11.0405V8.34965H17.2898C19.0999 8.34965 20.7701 9.50146 20.7701 11.5341C20.7701 13.1042 19.8923 14.1794 18.7758 14.5123V14.5521C20.4328 14.8938 21.6155 15.7952 21.6155 17.9648C21.6169 19.9783 20.2487 22.1552 16.761 22.1552V22.1552Z"/>
  </symbol>

  <symbol id="zoom" viewBox="0 0 24 25">
    <path fill-rule="evenodd" clip-rule="evenodd" d="M17.549 15.9701C18.8906 14.2886 19.6925 12.1579 19.6925 9.84011C19.6925 4.40556 15.2842 0 9.84626 0C4.40832 0 0 4.40556 0 9.84011C0 15.2746 4.40832 19.6802 9.84626 19.6802C12.1155 19.6802 14.2055 18.913 15.8706 17.624L21.93 23.7654C22.3864 24.228 23.1459 24.2468 23.6265 23.8073C24.107 23.3679 24.1265 22.6366 23.67 22.174L17.549 15.9701ZM9.84661 17.2201C5.76815 17.2201 2.46191 13.9159 2.46191 9.84004C2.46191 5.76413 5.76815 2.45996 9.84661 2.45996C13.9251 2.45996 17.2313 5.76413 17.2313 9.84004C17.2313 13.9159 13.9251 17.2201 9.84661 17.2201ZM9.42169 12.95C9.41905 13.3416 9.73465 13.6732 10.1266 13.6907C10.5185 13.7082 10.8384 13.4049 10.841 13.0134L10.8555 10.865L12.9492 10.8791C13.3408 10.8817 13.6724 10.5661 13.6899 10.1742C13.7074 9.78225 13.4041 9.46239 13.0126 9.45975L10.865 9.44532L10.8791 7.35155C10.8817 6.96 10.5661 6.62839 10.1742 6.6109C9.78225 6.5934 9.46239 6.89664 9.45975 7.2882L9.44531 9.43577L7.35075 9.42169C6.95919 9.41905 6.62759 9.73465 6.61009 10.1266C6.5926 10.5185 6.89583 10.8384 7.28739 10.841L9.43577 10.8555L9.42169 12.95Z"/>
  </symbol>
</svg>
